<?xml version="1.0" encoding="UTF-8"?>
<svg width="804px" height="534px" viewBox="0 0 804 534" version="1.1" xmlns="http://www.w3.org/2000/svg" xmlns:xlink="http://www.w3.org/1999/xlink">
    <title>Group</title>
    <defs>
        <polygon id="path-1" points="9.57557556e-14 0 70.6164646 0 70.6164646 154.276255 9.57557556e-14 154.276255"></polygon>
        <polygon id="path-3" points="0 0 192.930178 0 192.930178 142.578887 0 142.578887"></polygon>
        <polygon id="path-5" points="0 0 141.234614 0 141.234614 195.047156 0 195.047156"></polygon>
        <polygon id="path-7" points="0 0 61.1560146 0 61.1560146 230.355725 0 230.355725"></polygon>
        <polygon id="path-9" points="0 4.78778778e-14 46.7311867 4.78778778e-14 46.7311867 67.375553 0 67.375553"></polygon>
        <polygon id="path-11" points="0 4.78778778e-14 169.043216 4.78778778e-14 169.043216 67.375553 0 67.375553"></polygon>
        <polygon id="path-13" points="0 9.57557556e-14 527.09497 9.57557556e-14 527.09497 336.281601 0 336.281601"></polygon>
        <polygon id="path-15" points="0 0 50.536592 0 50.536592 27.3854423 0 27.3854423"></polygon>
        <polygon id="path-17" points="0 0 20.2146368 0 20.2146368 12.2244647 0 12.2244647"></polygon>
        <polygon id="path-19" points="-4.78778778e-14 0 26.9528491 0 26.9528491 13.4764245 -4.78778778e-14 13.4764245"></polygon>
        <polygon id="path-21" points="0 0 12.3208211 0 12.3208211 6.16007366 0 6.16007366"></polygon>
        <polygon id="path-23" points="0 -4.78778778e-14 32.4545994 -4.78778778e-14 32.4545994 18.3442775 0 18.3442775"></polygon>
        <polygon id="path-25" points="0 0 10.1073184 0 10.1073184 7.1708055 0 7.1708055"></polygon>
    </defs>
    <g id="Page-1" stroke="none" stroke-width="1" fill="none" fill-rule="evenodd">
        <g id="9" transform="translate(-111.000000, -247.000000)">
            <g id="Group" transform="translate(111.597500, 247.703900)">
                <g id="Group-1340" transform="translate(71.563520, 28.997054)">
                    <path d="M646.630014,195.73159 C646.630014,303.831045 558.997879,391.46318 450.898424,391.46318 C342.798969,391.46318 255.166834,303.831045 255.166834,195.73159 C255.166834,87.6321351 342.798969,0 450.898424,0 C558.997879,0 646.630014,87.6321351 646.630014,195.73159" id="Fill-1336" fill="#FF7171"></path>
                    <path d="M227.850963,186.196683 C227.850963,249.116424 176.844381,300.121322 113.926324,300.121322 C51.0065823,300.121322 0,249.116424 0,186.196683 C0,123.276941 51.0065823,72.2720434 113.926324,72.2720434 C176.844381,72.2720434 227.850963,123.276941 227.850963,186.196683" id="Fill-1338" fill="#FF7D7D"></path>
                </g>
                <g id="Group-1496" transform="translate(101.857512, 171.267668)">
                    <line x1="33.6910614" y1="218.198137" x2="560.786032" y2="359.432751" id="Stroke-1341" stroke="#F3F1DE"></line>
                    <g id="Group-1345" transform="translate(297.238378, 207.273642)">
                        <mask id="mask-2" fill="white">
                            <use xlink:href="#path-1"></use>
                        </mask>
                        <g id="Clip-1344"></g>
                        <line x1="9.57557556e-14" y1="0" x2="70.6164646" y2="345.089119" id="Stroke-1343" stroke="#F3F1DE" mask="url(#mask-2)"></line>
                    </g>
                    <g id="Group-1348" transform="translate(33.691061, 218.971010)">
                        <mask id="mask-4" fill="white">
                            <use xlink:href="#path-3"></use>
                        </mask>
                        <g id="Clip-1347"></g>
                        <line x1="0" y1="0" x2="192.930178" y2="333.391582" id="Stroke-1346" stroke="#F3F1DE" mask="url(#mask-4)"></line>
                    </g>
                    <g id="Group-1351" transform="translate(226.621071, 166.502741)">
                        <mask id="mask-6" fill="white">
                            <use xlink:href="#path-5"></use>
                        </mask>
                        <g id="Clip-1350"></g>
                        <line x1="0" y1="0" x2="141.234614" y2="385.860357" id="Stroke-1349" stroke="#F3F1DE" mask="url(#mask-6)"></line>
                    </g>
                    <line x1="226.621071" y1="25.268296" x2="33.6908929" y2="359.433088" id="Stroke-1352" stroke="#F3F1DE"></line>
                    <g id="Group-1356" transform="translate(367.856022, 131.194172)">
                        <mask id="mask-8" fill="white">
                            <use xlink:href="#path-7"></use>
                        </mask>
                        <g id="Clip-1355"></g>
                        <line x1="61.1560146" y1="0" x2="0" y2="421.168589" id="Stroke-1354" stroke="#F3F1DE" mask="url(#mask-8)"></line>
                    </g>
                    <line x1="94.6184821" y1="324.256251" x2="408.625912" y2="271.583646" id="Stroke-1357" stroke="#F3F1DE"></line>
                    <g id="Group-1361" transform="translate(226.620903, 294.174345)">
                        <mask id="mask-10" fill="white">
                            <use xlink:href="#path-9"></use>
                        </mask>
                        <g id="Clip-1360"></g>
                        <line x1="46.7311867" y1="4.78778778e-14" x2="0" y2="258.18808" id="Stroke-1359" stroke="#F3F1DE" mask="url(#mask-10)"></line>
                    </g>
                    <g id="Group-1364" transform="translate(104.308874, 294.174345)">
                        <mask id="mask-12" fill="white">
                            <use xlink:href="#path-11"></use>
                        </mask>
                        <g id="Clip-1363"></g>
                        <line x1="169.043216" y1="4.78778778e-14" x2="0" y2="187.571615" id="Stroke-1362" stroke="#F3F1DE" mask="url(#mask-12)"></line>
                    </g>
                    <line x1="560.785695" y1="218.198137" x2="408.626754" y2="271.583309" id="Stroke-1365" stroke="#F3F1DE"></line>
                    <path d="M273.352089,318.600364 L273.352089,318.600364 C259.862188,318.600364 248.92607,307.664245 248.92607,294.174345 L248.92607,294.174345 C248.92607,280.684444 259.862188,269.748325 273.352089,269.748325 L273.352089,269.748325 C286.84199,269.748325 297.778109,280.684444 297.778109,294.174345 L297.778109,294.174345 C297.778109,307.664245 286.84199,318.600364 273.352089,318.600364" id="Fill-1367" fill="#FF7D7D"></path>
                    <path d="M400.986801,330.091206 L400.986801,330.091206 C393.544445,330.091206 387.510376,324.057137 387.510376,316.614781 L387.510376,316.614781 C387.510376,309.172426 393.544445,303.138357 400.986801,303.138357 C408.429156,303.138357 414.463225,309.172426 414.463225,316.614781 L414.463225,316.614781 C414.463225,324.057137 408.429156,330.091206 400.986801,330.091206" id="Fill-1369" fill="#FF7D7D"></path>
                    <path d="M94.6184821,329.30991 L94.6184821,329.30991 C91.8271777,329.30991 89.5648229,327.047555 89.5648229,324.256251 L89.5648229,324.256251 C89.5648229,321.464947 91.8271777,319.202592 94.6184821,319.202592 L94.6184821,319.202592 C97.4097865,319.202592 99.6721413,321.464947 99.6721413,324.256251 L99.6721413,324.256251 C99.6721413,327.047555 97.4097865,329.30991 94.6184821,329.30991" id="Fill-1371" fill="#80B2CA"></path>
                    <path d="M104.308368,245.542814 L104.308368,245.542814 C99.6573172,245.542814 95.8856029,241.771099 95.8856029,237.120048 L95.8856029,237.120048 C95.8856029,232.468997 99.6573172,228.697283 104.308368,228.697283 L104.308368,228.697283 C108.959419,228.697283 112.731134,232.468997 112.731134,237.120048 L112.731134,237.120048 C112.731134,241.771099 108.959419,245.542814 104.308368,245.542814" id="Fill-1373" fill="#F3F1DE"></path>
                    <path d="M165.46472,144.670597 L165.46472,144.670597 C158.022364,144.670597 151.988295,138.636528 151.988295,131.194172 L151.988295,131.194172 C151.988295,123.751817 158.022364,117.717748 165.46472,117.717748 L165.46472,117.717748 C172.907075,117.717748 178.941144,123.751817 178.941144,131.194172 L178.941144,131.194172 C178.941144,138.636528 172.907075,144.670597 165.46472,144.670597" id="Fill-1375" fill="#80B2CA"></path>
                    <path d="M250.899355,247.50397 L250.899355,247.50397 C243.457,247.50397 237.422931,241.469901 237.422931,234.027546 L237.422931,234.027546 C237.422931,226.58519 243.457,220.551121 250.899355,220.551121 L250.899355,220.551121 C258.341711,220.551121 264.37578,226.58519 264.37578,234.027546 L264.37578,234.027546 C264.37578,241.469901 258.341711,247.50397 250.899355,247.50397" id="Fill-1377" fill="#FF7D7D"></path>
                    <g id="Group-1381" transform="translate(33.690893, 25.268296)">
                        <mask id="mask-14" fill="white">
                            <use xlink:href="#path-13"></use>
                        </mask>
                        <g id="Clip-1380"></g>
                        <polygon id="Stroke-1379" stroke="#F3F1DE" mask="url(#mask-14)" points="334.164792 9.57557556e-14 192.930178 9.57557556e-14 70.6181492 70.6164646 0 192.930178 0 334.164792 70.6181492 456.476821 192.930178 527.09497 334.164792 527.09497 456.476821 456.476821 527.09497 334.164792 527.09497 192.930178 456.476821 70.6164646"></polygon>
                    </g>
                    <line x1="104.308368" y1="95.8854344" x2="560.785189" y2="359.432077" id="Stroke-1382" stroke="#F3F1DE"></line>
                    <line x1="367.855685" y1="25.268296" x2="560.785863" y2="359.433088" id="Stroke-1384" stroke="#F3F1DE"></line>
                    <line x1="367.855685" y1="25.268296" x2="33.6908929" y2="359.433088" id="Stroke-1386" stroke="#F3F1DE"></line>
                    <line x1="490.168388" y1="95.8854344" x2="33.6915667" y2="359.432077" id="Stroke-1388" stroke="#F3F1DE"></line>
                    <line x1="560.785695" y1="218.198137" x2="226.620903" y2="25.2679591" id="Stroke-1390" stroke="#F3F1DE"></line>
                    <line x1="297.238378" y1="207.273642" x2="367.854843" y2="25.2677907" id="Stroke-1392" stroke="#F3F1DE"></line>
                    <path d="M408.626586,296.851942 L408.626586,296.851942 C394.671748,296.851942 383.35829,285.538483 383.35829,271.583646 L383.35829,271.583646 C383.35829,257.628808 394.671748,246.31535 408.626586,246.31535 L408.626586,246.31535 C422.581424,246.31535 433.894882,257.628808 433.894882,271.583646 L433.894882,271.583646 C433.894882,285.538483 422.581424,296.851942 408.626586,296.851942" id="Fill-1394" fill="#80B2CA"></path>
                    <path d="M297.238378,220.750067 L297.238378,220.750067 C289.796023,220.750067 283.761954,214.715998 283.761954,207.273642 L283.761954,207.273642 C283.761954,199.831287 289.796023,193.797218 297.238378,193.797218 C304.680734,193.797218 310.714803,199.831287 310.714803,207.273642 L310.714803,207.273642 C310.714803,214.715998 304.680734,220.750067 297.238378,220.750067" id="Fill-1396" fill="#F3F1DE"></path>
                    <g id="Group-1400" transform="translate(8.422934, 334.164455)">
                        <mask id="mask-16" fill="white">
                            <use xlink:href="#path-15"></use>
                        </mask>
                        <g id="Clip-1399"></g>
                        <path d="M25.268296,50.536592 L25.268296,50.536592 C11.3134584,50.536592 0,39.2231336 0,25.268296 L0,25.268296 C0,11.3134584 11.3134584,0 25.268296,0 L25.268296,0 C39.2231336,0 50.536592,11.3134584 50.536592,25.268296 L50.536592,25.268296 C50.536592,39.2231336 39.2231336,50.536592 25.268296,50.536592" id="Fill-1398" fill="#F3F1DE" mask="url(#mask-16)"></path>
                    </g>
                    <path d="M85.1792574,321.421148 L85.1792574,321.421148 C77.736902,321.421148 71.7028329,315.387079 71.7028329,307.944724 L71.7028329,307.944724 C71.7028329,300.502368 77.736902,294.468299 85.1792574,294.468299 L85.1792574,294.468299 C92.6216129,294.468299 98.655682,300.502368 98.655682,307.944724 L98.655682,307.944724 C98.655682,315.387079 92.6216129,321.421148 85.1792574,321.421148" id="Fill-1401" fill="#40425B"></path>
                    <path d="M200.546885,288.175314 L200.546885,288.175314 C186.592047,288.175314 175.278589,276.861856 175.278589,262.907018 L175.278589,262.907018 C175.278589,248.952181 186.592047,237.638722 200.546885,237.638722 L200.546885,237.638722 C214.501723,237.638722 225.815181,248.952181 225.815181,262.907018 L225.815181,262.907018 C225.815181,276.861856 214.501723,288.175314 200.546885,288.175314" id="Fill-1403" fill="#40425B"></path>
                    <path d="M225.815181,50.536592 L225.815181,50.536592 C211.860343,50.536592 200.546885,39.2231336 200.546885,25.268296 L200.546885,25.268296 C200.546885,11.3134584 211.860343,0 225.815181,0 L225.815181,0 C239.770019,0 251.083477,11.3134584 251.083477,25.268296 L251.083477,25.268296 C251.083477,39.2231336 239.770019,50.536592 225.815181,50.536592" id="Fill-1405" fill="#F3F1DE"></path>
                    <path d="M145.079269,264.890074 L145.079269,264.890074 C135.775483,264.890074 128.233739,257.34833 128.233739,248.044543 L128.233739,248.044543 C128.233739,238.740757 135.775483,231.199013 145.079269,231.199013 L145.079269,231.199013 C154.383056,231.199013 161.9248,238.740757 161.9248,248.044543 L161.9248,248.044543 C161.9248,257.34833 154.383056,264.890074 145.079269,264.890074" id="Fill-1407" fill="#80B2CA"></path>
                    <path d="M316.160289,93.8092228 L316.160289,93.8092228 C306.856502,93.8092228 299.314758,86.2674787 299.314758,76.9636921 L299.314758,76.9636921 C299.314758,67.6599055 306.856502,60.1181614 316.160289,60.1181614 L316.160289,60.1181614 C325.464075,60.1181614 333.00582,67.6599055 333.00582,76.9636921 L333.00582,76.9636921 C333.00582,86.2674787 325.464075,93.8092228 316.160289,93.8092228" id="Fill-1409" fill="#80B2CA"></path>
                    <path d="M342.008071,101.994129 L342.008071,101.994129 C336.425462,101.994129 331.900753,97.4694197 331.900753,91.8868108 L331.900753,91.8868108 C331.900753,86.304202 336.425462,81.7794924 342.008071,81.7794924 L342.008071,81.7794924 C347.59068,81.7794924 352.11539,86.304202 352.11539,91.8868108 L352.11539,91.8868108 C352.11539,97.4694197 347.59068,101.994129 342.008071,101.994129" id="Fill-1411" fill="#599ED0"></path>
                    <path d="M226.621071,191.771037 L226.621071,191.771037 C212.666234,191.771037 201.352775,180.457579 201.352775,166.502741 L201.352775,166.502741 C201.352775,152.547904 212.666234,141.234445 226.621071,141.234445 L226.621071,141.234445 C240.575909,141.234445 251.889367,152.547904 251.889367,166.502741 L251.889367,166.502741 C251.889367,180.457579 240.575909,191.771037 226.621071,191.771037" id="Fill-1413" fill="#599ED0"></path>
                    <path d="M33.6910614,185.279949 C52.2986345,185.279949 67.3821227,200.363437 67.3821227,218.97101 C67.3821227,237.578584 52.2986345,252.662072 33.6910614,252.662072 C15.0834882,252.662072 0,237.578584 0,218.97101 C0,200.363437 15.0834882,185.279949 33.6910614,185.279949" id="Fill-1415" fill="#40425B"></path>
                    <path d="M104.308368,79.6583032 C113.270191,79.6583032 120.535668,86.9237806 120.535668,95.8856029 C120.535668,104.847425 113.270191,112.112903 104.308368,112.112903 C95.3465459,112.112903 88.0810685,104.847425 88.0810685,95.8856029 C88.0810685,86.9237806 95.3465459,79.6583032 104.308368,79.6583032" id="Fill-1417" fill="#599ED0"></path>
                    <path d="M225.815181,33.6910614 L225.815181,33.6910614 C221.16413,33.6910614 217.392416,29.919347 217.392416,25.268296 C217.392416,20.617245 221.16413,16.8455307 225.815181,16.8455307 L225.815181,16.8455307 C230.466232,16.8455307 234.237946,20.617245 234.237946,25.268296 C234.237946,29.919347 230.466232,33.6910614 225.815181,33.6910614" id="Fill-1419" fill="#40425B"></path>
                    <path d="M408.626586,280.006411 L408.626586,280.006411 C403.975535,280.006411 400.203821,276.234697 400.203821,271.583646 L400.203821,271.583646 C400.203821,266.932595 403.975535,263.16088 408.626586,263.16088 C413.277637,263.16088 417.049351,266.932595 417.049351,271.583646 L417.049351,271.583646 C417.049351,276.234697 413.277637,280.006411 408.626586,280.006411" id="Fill-1421" fill="#F3F1DE"></path>
                    <path d="M226.621071,176.61006 L226.621071,176.61006 C221.038462,176.61006 216.513753,172.08535 216.513753,166.502741 L216.513753,166.502741 C216.513753,160.920132 221.038462,156.395423 226.621071,156.395423 L226.621071,156.395423 C232.20368,156.395423 236.72839,160.920132 236.72839,166.502741 L236.72839,166.502741 C236.72839,172.08535 232.20368,176.61006 226.621071,176.61006" id="Fill-1423" fill="#F3F1DE"></path>
                    <path d="M370.690451,55.3803559 L368.668987,55.3803559 C354.341863,55.3803559 342.72687,43.7653625 342.72687,29.4382387 L342.72687,27.416775 C342.72687,13.0896512 354.341863,1.47465776 368.668987,1.47465776 L370.690451,1.47465776 C385.017575,1.47465776 396.632568,13.0896512 396.632568,27.416775 L396.632568,29.4382387 C396.632568,43.7653625 385.017575,55.3803559 370.690451,55.3803559" id="Fill-1425" fill="#80B2CA"></path>
                    <path d="M369.679719,39.2086465 L369.679719,39.2086465 C363.724824,39.2086465 358.898579,34.3824019 358.898579,28.4275068 L358.898579,28.4275068 C358.898579,22.4726117 363.724824,17.6463672 369.679719,17.6463672 L369.679719,17.6463672 C375.634614,17.6463672 380.460859,22.4726117 380.460859,28.4275068 L380.460859,28.4275068 C380.460859,34.3824019 375.634614,39.2086465 369.679719,39.2086465" id="Fill-1427" fill="#599ED0"></path>
                    <path d="M200.546885,273.014337 L200.546885,273.014337 C194.964276,273.014337 190.439567,268.489627 190.439567,262.907018 L190.439567,262.907018 C190.439567,257.324409 194.964276,252.7997 200.546885,252.7997 L200.546885,252.7997 C206.129494,252.7997 210.654203,257.324409 210.654203,262.907018 L210.654203,262.907018 C210.654203,268.489627 206.129494,273.014337 200.546885,273.014337" id="Fill-1429" fill="#599ED0"></path>
                    <path d="M560.785695,243.466433 L560.785695,243.466433 C546.830857,243.466433 535.517399,232.152975 535.517399,218.198137 L535.517399,218.198137 C535.517399,204.2433 546.830857,192.929841 560.785695,192.929841 L560.785695,192.929841 C574.740532,192.929841 586.053991,204.2433 586.053991,218.198137 L586.053991,218.198137 C586.053991,232.152975 574.740532,243.466433 560.785695,243.466433" id="Fill-1431" fill="#FF7D7D"></path>
                    <path d="M560.785695,228.305456 L560.785695,228.305456 C555.203086,228.305456 550.678376,223.780746 550.678376,218.198137 L550.678376,218.198137 C550.678376,212.615529 555.203086,208.090819 560.785695,208.090819 C566.368304,208.090819 570.893013,212.615529 570.893013,218.198137 L570.893013,218.198137 C570.893013,223.780746 566.368304,228.305456 560.785695,228.305456" id="Fill-1433" fill="#F3F1DE"></path>
                    <path d="M490.168388,108.519582 L490.168388,108.519582 C483.190969,108.519582 477.53424,102.862853 477.53424,95.8854344 L477.53424,95.8854344 C477.53424,88.9080156 483.190969,83.2512864 490.168388,83.2512864 L490.168388,83.2512864 C497.145807,83.2512864 502.802536,88.9080156 502.802536,95.8854344 L502.802536,95.8854344 C502.802536,102.862853 497.145807,108.519582 490.168388,108.519582" id="Fill-1435" fill="#FF7D7D"></path>
                    <path d="M490.168388,100.939094 L490.168388,100.939094 C487.377084,100.939094 485.114729,98.6767389 485.114729,95.8854344 C485.114729,93.09413 487.377084,90.8317752 490.168388,90.8317752 L490.168388,90.8317752 C492.959692,90.8317752 495.222047,93.09413 495.222047,95.8854344 C495.222047,98.6767389 492.959692,100.939094 490.168388,100.939094" id="Fill-1437" fill="#F3F1DE"></path>
                    <path d="M297.238378,213.43439 L297.238378,213.43439 C293.835581,213.43439 291.077968,210.676776 291.077968,207.273979 L291.077968,207.273979 C291.077968,203.871182 293.835581,201.113569 297.238378,201.113569 C300.641175,201.113569 303.398789,203.871182 303.398789,207.273979 L303.398789,207.273979 C303.398789,210.676776 300.641175,213.43439 297.238378,213.43439" id="Fill-1439" fill="#40425B"></path>
                    <path d="M145.079269,255.745478 L145.079269,255.745478 C140.825773,255.745478 137.379177,252.297198 137.379177,248.045386 L137.379177,248.045386 C137.379177,243.791889 140.825773,240.343609 145.079269,240.343609 L145.079269,240.343609 C149.332766,240.343609 152.779361,243.791889 152.779361,248.045386 L152.779361,248.045386 C152.779361,252.297198 149.332766,255.745478 145.079269,255.745478" id="Fill-1441" fill="#F3F1DE"></path>
                    <path d="M85.1792574,314.105471 L85.1792574,314.105471 C81.7764602,314.105471 79.0188469,311.347858 79.0188469,307.94506 L79.0188469,307.94506 C79.0188469,304.542263 81.7764602,301.78465 85.1792574,301.78465 L85.1792574,301.78465 C88.5820546,301.78465 91.339668,304.542263 91.339668,307.94506 L91.339668,307.94506 C91.339668,311.347858 88.5820546,314.105471 85.1792574,314.105471" id="Fill-1443" fill="#F3F1DE"></path>
                    <path d="M316.160289,84.6646265 L316.160289,84.6646265 C311.906792,84.6646265 308.458512,81.2163463 308.458512,76.9645344 L308.458512,76.9645344 C308.458512,72.7110379 311.906792,69.2627578 316.160289,69.2627578 L316.160289,69.2627578 C320.413785,69.2627578 323.860381,72.7110379 323.860381,76.9645344 L323.860381,76.9645344 C323.860381,81.2163463 320.413785,84.6646265 316.160289,84.6646265" id="Fill-1445" fill="#40425B"></path>
                    <path d="M342.007903,96.5073714 L342.007903,96.5073714 C339.455805,96.5073714 337.387174,94.4387403 337.387174,91.8866424 C337.387174,89.3345445 339.455805,87.2659133 342.007903,87.2659133 C344.560001,87.2659133 346.628632,89.3345445 346.628632,91.8866424 C346.628632,94.4387403 344.560001,96.5073714 342.007903,96.5073714" id="Fill-1447" fill="#F3F1DE"></path>
                    <path d="M33.6910614,204.652309 C41.5983535,204.652309 48.0097624,211.063718 48.0097624,218.97101 C48.0097624,226.878302 41.5983535,233.289711 33.6910614,233.289711 C25.7837693,233.289711 19.3723603,226.878302 19.3723603,218.97101 C19.3723603,211.063718 25.7837693,204.652309 33.6910614,204.652309" id="Fill-1449" fill="#80B2CA"></path>
                    <path d="M104.308368,90.8317752 C107.099673,90.8317752 109.362027,93.09413 109.362027,95.8854344 C109.362027,98.6767389 107.099673,100.939094 104.308368,100.939094 C101.517064,100.939094 99.254709,98.6767389 99.254709,95.8854344 C99.254709,93.09413 101.517064,90.8317752 104.308368,90.8317752" id="Fill-1451" fill="#F3F1DE"></path>
                    <path d="M94.6184821,326.566615 L94.6184821,326.566615 C93.3432754,326.566615 92.3089598,325.5323 92.3089598,324.257093 L92.3089598,324.257093 C92.3089598,322.980202 93.3432754,321.945886 94.6184821,321.945886 L94.6184821,321.945886 C95.8936888,321.945886 96.9280043,322.980202 96.9280043,324.257093 L96.9280043,324.257093 C96.9280043,325.5323 95.8936888,326.566615 94.6184821,326.566615" id="Fill-1453" fill="#40425B"></path>
                    <path d="M250.899187,240.188293 L250.899187,240.188293 C247.49639,240.188293 244.738776,237.43068 244.738776,234.027883 L244.738776,234.027883 C244.738776,230.625085 247.49639,227.867472 250.899187,227.867472 C254.301984,227.867472 257.059598,230.625085 257.059598,234.027883 L257.059598,234.027883 C257.059598,237.43068 254.301984,240.188293 250.899187,240.188293" id="Fill-1455" fill="#40425B"></path>
                    <path d="M165.46472,137.35492 L165.46472,137.35492 C162.061923,137.35492 159.304309,134.597306 159.304309,131.194509 C159.304309,127.791712 162.061923,125.034098 165.46472,125.034098 C168.867517,125.034098 171.62513,127.791712 171.62513,131.194509 C171.62513,134.597306 168.867517,137.35492 165.46472,137.35492" id="Fill-1457" fill="#40425B"></path>
                    <path d="M104.308368,240.970431 L104.308368,240.970431 C102.182462,240.970431 100.45748,239.247133 100.45748,237.119543 L100.45748,237.119543 C100.45748,234.993637 102.182462,233.270339 104.308368,233.270339 L104.308368,233.270339 C106.434274,233.270339 108.159257,234.993637 108.159257,237.119543 L108.159257,237.119543 C108.159257,239.247133 106.434274,240.970431 104.308368,240.970431" id="Fill-1459" fill="#599ED0"></path>
                    <path d="M74.2859266,295.858729 L74.2859266,295.858729 C70.5647488,295.858729 67.5477143,292.841695 67.5477143,289.120517 L67.5477143,289.120517 C67.5477143,285.399339 70.5647488,282.382305 74.2859266,282.382305 L74.2859266,282.382305 C78.0071043,282.382305 81.0241388,285.399339 81.0241388,289.120517 L81.0241388,289.120517 C81.0241388,292.841695 78.0071043,295.858729 74.2859266,295.858729" id="Fill-1461" fill="#80B2CA"></path>
                    <path d="M74.2859266,292.200891 L74.2859266,292.200891 C72.584528,292.200891 71.204879,290.821242 71.204879,289.119843 L71.204879,289.119843 C71.204879,287.420129 72.584528,286.04048 74.2859266,286.04048 C75.9873252,286.04048 77.3669741,287.420129 77.3669741,289.119843 L77.3669741,289.119843 C77.3669741,290.821242 75.9873252,292.200891 74.2859266,292.200891" id="Fill-1463" fill="#40425B"></path>
                    <g id="Group-1467" transform="translate(23.583743, 349.325433)">
                        <mask id="mask-18" fill="white">
                            <use xlink:href="#path-17"></use>
                        </mask>
                        <g id="Clip-1466"></g>
                        <path d="M10.1073184,20.2146368 L10.1073184,20.2146368 C4.52470954,20.2146368 0,15.6899273 0,10.1073184 L0,10.1073184 C0,4.52470954 4.52470954,0 10.1073184,0 L10.1073184,0 C15.6899273,0 20.2146368,4.52470954 20.2146368,10.1073184 L20.2146368,10.1073184 C20.2146368,15.6899273 15.6899273,20.2146368 10.1073184,20.2146368" id="Fill-1465" fill="#FF7D7D" mask="url(#mask-18)"></path>
                    </g>
                    <path d="M429.012036,158.989298 L429.012036,158.989298 C413.660704,158.989298 401.216911,146.545504 401.216911,131.194172 L401.216911,131.194172 C401.216911,115.84284 413.660704,103.399046 429.012036,103.399046 L429.012036,103.399046 C444.363369,103.399046 456.807162,115.84284 456.807162,131.194172 L456.807162,131.194172 C456.807162,146.545504 444.363369,158.989298 429.012036,158.989298" id="Fill-1468" fill="#40425B"></path>
                    <path d="M429.012036,142.312222 L429.012036,142.312222 C422.871841,142.312222 417.893986,137.334368 417.893986,131.194172 L417.893986,131.194172 C417.893986,125.053976 422.871841,120.076122 429.012036,120.076122 L429.012036,120.076122 C435.152232,120.076122 440.130087,125.053976 440.130087,131.194172 L440.130087,131.194172 C440.130087,137.334368 435.152232,142.312222 429.012036,142.312222" id="Fill-1470" fill="#599ED0"></path>
                    <path d="M400.986801,322.775529 L400.986801,322.775529 C397.584004,322.775529 394.82639,320.017915 394.82639,316.615118 L394.82639,316.615118 C394.82639,313.212321 397.584004,310.454708 400.986801,310.454708 C404.389598,310.454708 407.147211,313.212321 407.147211,316.615118 L407.147211,316.615118 C407.147211,320.017915 404.389598,322.775529 400.986801,322.775529" id="Fill-1472" fill="#40425B"></path>
                    <path d="M313.658391,304.359489 L313.658391,304.359489 C304.354604,304.359489 296.81286,296.817745 296.81286,287.513959 L296.81286,287.513959 C296.81286,278.210172 304.354604,270.668428 313.658391,270.668428 L313.658391,270.668428 C322.962177,270.668428 330.503921,278.210172 330.503921,287.513959 L330.503921,287.513959 C330.503921,296.817745 322.962177,304.359489 313.658391,304.359489" id="Fill-1474" fill="#80B2CA"></path>
                    <path d="M313.658391,295.214893 L313.658391,295.214893 C309.404894,295.214893 305.958299,291.766613 305.958299,287.514801 L305.958299,287.514801 C305.958299,283.261304 309.404894,279.813024 313.658391,279.813024 C317.911887,279.813024 321.358483,283.261304 321.358483,287.514801 L321.358483,287.514801 C321.358483,291.766613 317.911887,295.214893 313.658391,295.214893" id="Fill-1476" fill="#40425B"></path>
                    <g id="Group-1480" transform="translate(199.155107, 348.073473)">
                        <mask id="mask-20" fill="white">
                            <use xlink:href="#path-19"></use>
                        </mask>
                        <g id="Clip-1479"></g>
                        <path d="M13.4764245,26.9528491 L13.4764245,26.9528491 C6.03406909,26.9528491 -4.78778778e-14,20.91878 -4.78778778e-14,13.4764245 L-4.78778778e-14,13.4764245 C-4.78778778e-14,6.03406909 6.03406909,0 13.4764245,0 L13.4764245,0 C20.91878,0 26.9528491,6.03406909 26.9528491,13.4764245 L26.9528491,13.4764245 C26.9528491,20.91878 20.91878,26.9528491 13.4764245,26.9528491" id="Fill-1478" fill="#FF7D7D" mask="url(#mask-20)"></path>
                    </g>
                    <g id="Group-1483" transform="translate(206.471121, 355.389824)">
                        <mask id="mask-22" fill="white">
                            <use xlink:href="#path-21"></use>
                        </mask>
                        <g id="Clip-1482"></g>
                        <path d="M6.16041057,12.3208211 L6.16041057,12.3208211 C2.75761337,12.3208211 0,9.56320777 0,6.16041057 L0,6.16041057 C0,2.75761337 2.75761337,0 6.16041057,0 L6.16041057,0 C9.56320777,0 12.3208211,2.75761337 12.3208211,6.16041057 L12.3208211,6.16041057 C12.3208211,9.56320777 9.56320777,12.3208211 6.16041057,12.3208211" id="Fill-1481" fill="#40425B" mask="url(#mask-22)"></path>
                    </g>
                    <path d="M273.352089,308.493046 L273.352089,308.493046 C265.444797,308.493046 259.033388,302.081637 259.033388,294.174345 L259.033388,294.174345 C259.033388,286.267052 265.444797,279.855643 273.352089,279.855643 L273.352089,279.855643 C281.259382,279.855643 287.670791,286.267052 287.670791,294.174345 L287.670791,294.174345 C287.670791,302.081637 281.259382,308.493046 273.352089,308.493046" id="Fill-1484" fill="#40425B"></path>
                    <path d="M492.979065,225.761107 C501.940887,225.761107 509.206364,233.026584 509.206364,241.988407 C509.206364,250.950229 501.940887,258.215706 492.979065,258.215706 C484.017242,258.215706 476.751765,250.950229 476.751765,241.988407 C476.751765,233.026584 484.017242,225.761107 492.979065,225.761107" id="Fill-1486" fill="#599ED0"></path>
                    <path d="M492.979065,236.934747 C495.770369,236.934747 498.032724,239.197102 498.032724,241.988407 C498.032724,244.779711 495.770369,247.042066 492.979065,247.042066 C490.18776,247.042066 487.925406,244.779711 487.925406,241.988407 C487.925406,239.197102 490.18776,236.934747 492.979065,236.934747" id="Fill-1488" fill="#40425B"></path>
                    <g id="Group-1492" transform="translate(544.558395, 343.205620)">
                        <mask id="mask-24" fill="white">
                            <use xlink:href="#path-23"></use>
                        </mask>
                        <g id="Clip-1491"></g>
                        <path d="M16.2272997,-4.78778778e-14 C25.189122,-4.78778778e-14 32.4545994,7.26547738 32.4545994,16.2272997 C32.4545994,25.189122 25.189122,32.4545994 16.2272997,32.4545994 C7.26547738,32.4545994 0,25.189122 0,16.2272997 C0,7.26547738 7.26547738,-4.78778778e-14 16.2272997,-4.78778778e-14" id="Fill-1490" fill="#F3F1DE" mask="url(#mask-24)"></path>
                    </g>
                    <g id="Group-1495" transform="translate(555.732036, 354.379092)">
                        <mask id="mask-26" fill="white">
                            <use xlink:href="#path-25"></use>
                        </mask>
                        <g id="Clip-1494"></g>
                        <path d="M5.0536592,0 C7.84496364,0 10.1073184,2.26235477 10.1073184,5.0536592 C10.1073184,7.84496364 7.84496364,10.1073184 5.0536592,10.1073184 C2.26235477,10.1073184 0,7.84496364 0,5.0536592 C0,2.26235477 2.26235477,0 5.0536592,0" id="Fill-1493" fill="#40425B" mask="url(#mask-26)"></path>
                    </g>
                </g>
                <g id="Group-1713" transform="translate(0.000000, -0.000000)">
                    <line x1="562.096614" y1="89.1792287" x2="633.033144" y2="154.806047" id="Stroke-1497" stroke="#F3F1DE"></line>
                    <polygon id="Stroke-1499" stroke="#F3F1DE" points="640.093274 227.211339 698.265945 227.211339 748.645874 198.124161 777.731367 147.745917 777.731367 89.5732456 748.645874 39.193317 698.265945 10.1078238 640.093274 10.1078238 589.713345 39.193317 560.627852 89.5732456 560.627852 147.745917 589.713345 198.124161"></polygon>
                    <line x1="560.627515" y1="147.745748" x2="633.032975" y2="154.80571" id="Stroke-1501" stroke="#F3F1DE"></line>
                    <line x1="589.714019" y1="198.125003" x2="748.644863" y2="39.1941593" id="Stroke-1503" stroke="#F3F1DE"></line>
                    <line x1="669.904641" y1="117.423793" x2="640.093106" y2="10.1076553" id="Stroke-1505" stroke="#F3F1DE"></line>
                    <line x1="560.627515" y1="89.5729087" x2="748.645537" y2="39.1929801" id="Stroke-1507" stroke="#F3F1DE"></line>
                    <line x1="591.990019" y1="39.193654" x2="669.903967" y2="117.424298" id="Stroke-1509" stroke="#F3F1DE"></line>
                    <line x1="650.791871" y1="64.3832813" x2="698.265945" y2="9.14678625" id="Stroke-1511" stroke="#F3F1DE"></line>
                    <line x1="640.287166" y1="11.0910974" x2="703.306296" y2="51.3418084" id="Stroke-1513" stroke="#F3F1DE"></line>
                    <line x1="669.904641" y1="117.423793" x2="748.645705" y2="198.125677" id="Stroke-1515" stroke="#F3F1DE"></line>
                    <line x1="669.904641" y1="117.423793" x2="777.731199" y2="147.745748" id="Stroke-1517" stroke="#F3F1DE"></line>
                    <line x1="669.17961" y1="118.659413" x2="777.732209" y2="89.5722349" id="Stroke-1519" stroke="#F3F1DE"></line>
                    <line x1="640.093274" y1="227.211339" x2="624.989571" y2="72.3267913" id="Stroke-1521" stroke="#F3F1DE"></line>
                    <path d="M748.645368,55.4209537 C739.683546,55.4209537 732.418069,48.1554763 732.418069,39.193654 C732.418069,30.2318316 739.683546,22.9663543 748.645368,22.9663543 C757.607191,22.9663543 764.872668,30.2318316 764.872668,39.193654 C764.872668,48.1554763 757.607191,55.4209537 748.645368,55.4209537" id="Fill-1523" fill="#40425B"></path>
                    <path d="M748.645368,44.2473132 C745.854064,44.2473132 743.591709,41.9849584 743.591709,39.193654 C743.591709,36.4023495 745.854064,34.1399948 748.645368,34.1399948 C751.436673,34.1399948 753.699028,36.4023495 753.699028,39.193654 C753.699028,41.9849584 751.436673,44.2473132 748.645368,44.2473132" id="Fill-1525" fill="#F3F1DE"></path>
                    <path d="M560.627515,163.973048 C551.665693,163.973048 544.400216,156.707571 544.400216,147.745748 C544.400216,138.783926 551.665693,131.518449 560.627515,131.518449 C569.589338,131.518449 576.854815,138.783926 576.854815,147.745748 C576.854815,156.707571 569.589338,163.973048 560.627515,163.973048" id="Fill-1527" fill="#599ED0"></path>
                    <path d="M560.627515,152.799407 C557.836211,152.799407 555.573856,150.537053 555.573856,147.745748 C555.573856,144.954444 557.836211,142.692089 560.627515,142.692089 C563.41882,142.692089 565.681175,144.954444 565.681175,147.745748 C565.681175,150.537053 563.41882,152.799407 560.627515,152.799407" id="Fill-1529" fill="#F3F1DE"></path>
                    <path d="M748.645368,211.601428 C741.203013,211.601428 735.168944,205.567359 735.168944,198.125003 C735.168944,190.682648 741.203013,184.648579 748.645368,184.648579 C756.087724,184.648579 762.121793,190.682648 762.121793,198.125003 C762.121793,205.567359 756.087724,211.601428 748.645368,211.601428" id="Fill-1531" fill="#599ED0"></path>
                    <path d="M748.645368,202.321899 C746.327423,202.321899 744.449147,200.443622 744.449147,198.125677 C744.449147,195.807732 746.327423,193.927771 748.645368,193.927771 C750.963313,193.927771 752.84159,195.807732 752.84159,198.125677 C752.84159,200.443622 750.963313,202.321899 748.645368,202.321899" id="Fill-1533" fill="#F3F1DE"></path>
                    <path d="M694.447906,201.943043 L694.447906,201.943043 C708.402743,201.943043 719.716202,213.256501 719.716202,227.211339 L719.716202,227.211339 C719.716202,241.166176 708.402743,252.479635 694.447906,252.479635 L694.447906,252.479635 C680.493068,252.479635 669.17961,241.166176 669.17961,227.211339 L669.17961,227.211339 C669.17961,213.256501 680.493068,201.943043 694.447906,201.943043" id="Fill-1535" fill="#F3F1DE"></path>
                    <path d="M694.447906,218.788573 L694.447906,218.788573 C699.098957,218.788573 702.870671,222.560288 702.870671,227.211339 L702.870671,227.211339 C702.870671,231.86239 699.098957,235.634104 694.447906,235.634104 C689.796855,235.634104 686.02514,231.86239 686.02514,227.211339 L686.02514,227.211339 C686.02514,222.560288 689.796855,218.788573 694.447906,218.788573" id="Fill-1537" fill="#40425B"></path>
                    <path d="M669.17961,93.3911167 L669.17961,93.3911167 C683.134447,93.3911167 694.447906,104.704575 694.447906,118.659413 L694.447906,118.659413 C694.447906,132.61425 683.134447,143.927709 669.17961,143.927709 L669.17961,143.927709 C655.224772,143.927709 643.911314,132.61425 643.911314,118.659413 L643.911314,118.659413 C643.911314,104.704575 655.224772,93.3911167 669.17961,93.3911167" id="Fill-1539" fill="#599ED0"></path>
                    <path d="M669.17961,108.552094 L669.17961,108.552094 C674.762219,108.552094 679.286928,113.076804 679.286928,118.659413 C679.286928,124.242022 674.762219,128.766731 669.17961,128.766731 C663.597001,128.766731 659.072291,124.242022 659.072291,118.659413 C659.072291,113.076804 663.597001,108.552094 669.17961,108.552094" id="Fill-1541" fill="#F3F1DE"></path>
                    <path d="M777.731704,79.4655903 L777.731704,79.4655903 C783.314313,79.4655903 787.839022,83.9902999 787.839022,89.5729087 L787.839022,89.5729087 C787.839022,95.1555176 783.314313,99.6802271 777.731704,99.6802271 C772.149095,99.6802271 767.624386,95.1555176 767.624386,89.5729087 L767.624386,89.5729087 C767.624386,83.9902999 772.149095,79.4655903 777.731704,79.4655903" id="Fill-1543" fill="#599ED0"></path>
                    <path d="M777.731704,84.9523481 L777.731704,84.9523481 C780.283802,84.9523481 782.352433,87.0209793 782.352433,89.5730772 C782.352433,92.1251751 780.283802,94.1938063 777.731704,94.1938063 C775.179606,94.1938063 773.110975,92.1251751 773.110975,89.5730772 C773.110975,87.0209793 775.179606,84.9523481 777.731704,84.9523481" id="Fill-1545" fill="#F3F1DE"></path>
                    <path d="M698.266114,0 L698.266114,0 C703.848723,0 708.373432,4.52470954 708.373432,10.1073184 L708.373432,10.1073184 C708.373432,15.6899273 703.848723,20.2146368 698.266114,20.2146368 L698.266114,20.2146368 C692.683505,20.2146368 688.158795,15.6899273 688.158795,10.1073184 L688.158795,10.1073184 C688.158795,4.52470954 692.683505,0 698.266114,0" id="Fill-1547" fill="#599ED0"></path>
                    <path d="M698.266114,5.4867578 L698.266114,5.4867578 C700.818212,5.4867578 702.886843,7.55538896 702.886843,10.1074869 L702.886843,10.1074869 C702.886843,12.6595848 700.818212,14.7282159 698.266114,14.7282159 L698.266114,14.7282159 C695.714016,14.7282159 693.645385,12.6595848 693.645385,10.1074869 L693.645385,10.1074869 C693.645385,7.55538896 695.714016,5.4867578 698.266114,5.4867578" id="Fill-1549" fill="#F3F1DE"></path>
                    <path d="M591.990019,51.827802 C585.0126,51.827802 579.355871,46.1710728 579.355871,39.193654 C579.355871,32.2162351 585.0126,26.5595059 591.990019,26.5595059 C598.967438,26.5595059 604.624167,32.2162351 604.624167,39.193654 C604.624167,46.1710728 598.967438,51.827802 591.990019,51.827802" id="Fill-1551" fill="#FF7D7D"></path>
                    <path d="M591.990019,43.128433 C589.816946,43.128433 588.054903,41.3663905 588.054903,39.193317 C588.054903,37.0202436 589.816946,35.2598856 591.990019,35.2598856 C594.163092,35.2598856 595.925135,37.0202436 595.925135,39.193317 C595.925135,41.3663905 594.163092,43.128433 591.990019,43.128433" id="Fill-1553" fill="#40425B"></path>
                    <path d="M650.791871,80.6104126 C641.830048,80.6104126 634.564571,73.3449352 634.564571,64.3831129 C634.564571,55.4212906 641.830048,48.1558132 650.791871,48.1558132 C659.753693,48.1558132 667.01917,55.4212906 667.01917,64.3831129 C667.01917,73.3449352 659.753693,80.6104126 650.791871,80.6104126" id="Fill-1555" fill="#599ED0"></path>
                    <path d="M650.791871,70.2792171 C647.53563,70.2792171 644.895935,67.6395224 644.895935,64.3832813 C644.895935,61.1270403 647.53563,58.4873456 650.791871,58.4873456 C654.048112,58.4873456 656.687806,61.1270403 656.687806,64.3832813 C656.687806,67.6395224 654.048112,70.2792171 650.791871,70.2792171" id="Fill-1557" fill="#40425B"></path>
                    <path d="M676.639484,21.6756497 L676.639484,21.6756497 C683.616903,21.6756497 689.273632,27.3323789 689.273632,34.3097977 L689.273632,34.3097977 C689.273632,41.2872165 683.616903,46.9439457 676.639484,46.9439457 L676.639484,46.9439457 C669.662066,46.9439457 664.005336,41.2872165 664.005336,34.3097977 L664.005336,34.3097977 C664.005336,27.3323789 669.662066,21.6756497 676.639484,21.6756497" id="Fill-1559" fill="#FF7D7D"></path>
                    <path d="M676.639484,29.2561385 L676.639484,29.2561385 C679.430789,29.2561385 681.693144,31.5184933 681.693144,34.3097977 L681.693144,34.3097977 C681.693144,37.1011021 679.430789,39.3634569 676.639484,39.3634569 C673.84818,39.3634569 671.585825,37.1011021 671.585825,34.3097977 L671.585825,34.3097977 C671.585825,31.5184933 673.84818,29.2561385 676.639484,29.2561385" id="Fill-1561" fill="#F3F1DE"></path>
                    <path d="M562.096614,82.8346965 L562.096614,82.8346965 C565.817792,82.8346965 568.834826,85.851731 568.834826,89.5729087 C568.834826,93.2940865 565.817792,96.311121 562.096614,96.311121 C558.375436,96.311121 555.358402,93.2940865 555.358402,89.5729087 C555.358402,85.851731 558.375436,82.8346965 562.096614,82.8346965" id="Fill-1563" fill="#FF7D7D"></path>
                    <path d="M562.096614,86.8776238 L562.096614,86.8776238 C563.585759,86.8776238 564.791899,88.0837638 564.791899,89.5729087 C564.791899,91.0620536 563.585759,92.2681936 562.096614,92.2681936 C560.607469,92.2681936 559.401329,91.0620536 559.401329,89.5729087 C559.401329,88.0837638 560.607469,86.8776238 562.096614,86.8776238" id="Fill-1565" fill="#F3F1DE"></path>
                    <path d="M703.306296,43.761825 L703.306296,43.761825 C707.492411,43.761825 710.886785,47.1561994 710.886785,51.3423138 C710.886785,55.5284281 707.492411,58.9228026 703.306296,58.9228026 C699.120182,58.9228026 695.725808,55.5284281 695.725808,51.3423138 C695.725808,47.1561994 699.120182,43.761825 703.306296,43.761825" id="Fill-1567" fill="#F3F1DE"></path>
                    <path d="M703.306296,47.8768512 L703.306296,47.8768512 C705.219949,47.8768512 706.771422,49.4283246 706.771422,51.3419769 C706.771422,53.2556291 705.219949,54.8071025 703.306296,54.8071025 C701.392644,54.8071025 699.841171,53.2556291 699.841171,51.3419769 C699.841171,49.4283246 701.392644,47.8768512 703.306296,47.8768512" id="Fill-1569" fill="#40425B"></path>
                    <path d="M589.714019,190.544514 L589.714019,190.544514 C593.900134,190.544514 597.294508,193.938889 597.294508,198.125003 C597.294508,202.311117 593.900134,205.705492 589.714019,205.705492 C585.527905,205.705492 582.133531,202.311117 582.133531,198.125003 L582.133531,198.125003 C582.133531,193.938889 585.527905,190.544514 589.714019,190.544514" id="Fill-1571" fill="#F3F1DE"></path>
                    <path d="M589.714019,194.65954 L589.714019,194.65954 C591.627672,194.65954 593.179145,196.211014 593.179145,198.124666 C593.179145,200.038318 591.627672,201.589792 589.714019,201.589792 C587.800367,201.589792 586.248894,200.038318 586.248894,198.124666 C586.248894,196.211014 587.800367,194.65954 589.714019,194.65954" id="Fill-1573" fill="#40425B"></path>
                    <path d="M624.98974,61.3775333 L624.98974,61.3775333 C631.037285,61.3775333 635.939335,66.2795827 635.939335,72.3271282 C635.939335,78.3746738 631.037285,83.2767232 624.98974,83.2767232 L624.98974,83.2767232 C618.942194,83.2767232 614.040145,78.3746738 614.040145,72.3271282 C614.040145,66.2795827 618.942194,61.3775333 624.98974,61.3775333" id="Fill-1575" fill="#F3F1DE"></path>
                    <path d="M624.989908,68.9580221 L624.989908,68.9580221 C626.851339,68.9580221 628.359014,70.4656971 628.359014,72.3271282 C628.359014,74.1885594 626.851339,75.6962344 624.989908,75.6962344 C623.128477,75.6962344 621.620802,74.1885594 621.620802,72.3271282 C621.620802,70.4656971 623.128477,68.9580221 624.989908,68.9580221" id="Fill-1577" fill="#40425B"></path>
                    <path d="M777.731704,122.477452 L777.731704,122.477452 C791.686542,122.477452 803,133.790911 803,147.745748 L803,147.745748 C803,161.700586 791.686542,173.014044 777.731704,173.014044 C763.776866,173.014044 752.463408,161.700586 752.463408,147.745748 L752.463408,147.745748 C752.463408,133.790911 763.776866,122.477452 777.731704,122.477452" id="Fill-1579" fill="#40425B"></path>
                    <path d="M777.731704,136.194431 L777.731704,136.194431 C784.111106,136.194431 789.282684,141.366009 789.282684,147.745411 L789.282684,147.745411 C789.282684,154.124814 784.111106,159.296392 777.731704,159.296392 C771.352302,159.296392 766.180724,154.124814 766.180724,147.745411 L766.180724,147.745411 C766.180724,141.366009 771.352302,136.194431 777.731704,136.194431" id="Fill-1581" fill="#599ED0"></path>
                    <path d="M633.032638,143.014344 L633.032638,143.014344 C639.545121,143.014344 644.82451,148.293733 644.82451,154.806216 C644.82451,161.318698 639.545121,166.598087 633.032638,166.598087 C626.520156,166.598087 621.240767,161.318698 621.240767,154.806216 C621.240767,148.293733 626.520156,143.014344 633.032638,143.014344" id="Fill-1583" fill="#40425B"></path>
                    <path d="M633.032638,149.415646 L633.032638,149.415646 C636.009244,149.415646 638.423208,151.82961 638.423208,154.806216 C638.423208,157.782821 636.009244,160.196785 633.032638,160.196785 C630.056033,160.196785 627.642069,157.782821 627.642069,154.806216 C627.642069,151.82961 630.056033,149.415646 633.032638,149.415646" id="Fill-1585" fill="#F3F1DE"></path>
                    <line x1="84.9120873" y1="153.290118" x2="23.2507068" y2="120.453125" id="Stroke-1587" stroke="#F3F1DE"></line>
                    <polyline id="Stroke-1589" stroke="#F3F1DE" points="124.33703 117.5877 58.7304266 86.7216342 47.3664316 133.296157 32.1515483 163.473241 52.9406177 184.538577"></polyline>
                    <line x1="155.975969" y1="88.9361477" x2="84.9114135" y2="153.289444" id="Stroke-1591" stroke="#F3F1DE"></line>
                    <line x1="58.7305951" y1="86.7211288" x2="84.9119189" y2="153.289612" id="Stroke-1593" stroke="#F3F1DE"></line>
                    <line x1="84.9120873" y1="153.290118" x2="23.2507068" y2="214.996981" id="Stroke-1595" stroke="#F3F1DE"></line>
                    <line x1="84.9120873" y1="153.290118" x2="58.7038107" y2="250.931867" id="Stroke-1597" stroke="#F3F1DE"></line>
                    <polyline id="Stroke-1599" stroke="#F3F1DE" points="52.9411231 184.538577 66.906068 220.375759 95.8197369 212.084389"></polyline>
                    <line x1="130.552357" y1="217.87723" x2="95.8185577" y2="212.084052" id="Stroke-1601" stroke="#F3F1DE"></line>
                    <polyline id="Stroke-1603" stroke="#F3F1DE" points="146.067428 142.739088 120.977695 175.089245 130.552694 217.876893"></polyline>
                    <line x1="118.350803" y1="110.659133" x2="146.066754" y2="142.739762" id="Stroke-1605" stroke="#F3F1DE"></line>
                    <line x1="187.006111" y1="120.452788" x2="146.068102" y2="142.739425" id="Stroke-1607" stroke="#F3F1DE"></line>
                    <line x1="199.67277" y1="167.724716" x2="146.066923" y2="142.739425" id="Stroke-1609" stroke="#F3F1DE"></line>
                    <path d="M12.4267795,165.444 L12.8647633,165.881984 C13.8822334,166.899454 13.8822334,168.550316 12.8647633,169.567786 L12.4267795,170.005769 C11.4093095,171.023239 9.76013202,171.023239 8.74266197,170.005769 L8.30467817,169.567786 C7.28720812,168.550316 7.28720812,166.899454 8.30467817,165.881984 L8.74266197,165.444 C9.76013202,164.42653 11.4093095,164.42653 12.4267795,165.444" id="Fill-1611" fill="#40425B"></path>
                    <polygon id="Stroke-1613" stroke="#F3F1DE" points="23.2512122 214.996644 57.8569858 249.602418 105.128914 262.268573 152.400842 249.602418 187.006616 214.996644 199.67277 167.724716 187.006616 120.452788 152.400842 85.8470143 105.128914 73.1808597 57.8569858 85.8470143 23.2512122 120.452788 10.5850577 167.724716"></polygon>
                    <line x1="106.482621" y1="74.534735" x2="84.9119189" y2="152.989425" id="Stroke-1615" stroke="#F3F1DE"></line>
                    <line x1="84.9120873" y1="153.290118" x2="105.128409" y2="262.268909" id="Stroke-1617" stroke="#F3F1DE"></line>
                    <line x1="84.9120873" y1="153.290118" x2="187.006111" y2="214.996981" id="Stroke-1619" stroke="#F3F1DE"></line>
                    <line x1="84.9120873" y1="153.290118" x2="152.400337" y2="249.602755" id="Stroke-1621" stroke="#F3F1DE"></line>
                    <path d="M190.019608,177.377879 C184.687997,172.046269 184.687997,163.402827 190.019608,158.071216 C195.351218,152.739606 203.99466,152.739606 209.32627,158.071216 C214.657881,163.402827 214.657881,172.046269 209.32627,177.377879 C203.99466,182.709489 195.351218,182.709489 190.019608,177.377879" id="Fill-1623" fill="#40425B"></path>
                    <path d="M196.666349,170.73097 C195.005379,169.07 195.005379,166.378084 196.666349,164.7188 C198.327318,163.05783 201.019234,163.05783 202.678518,164.7188 C204.339488,166.378084 204.339488,169.07 202.678518,170.73097 C201.019234,172.391939 198.327318,172.391939 196.666349,170.73097" id="Fill-1625" fill="#F3F1DE"></path>
                    <path d="M13.5980493,130.105782 C8.26643881,124.774172 8.26643881,116.13073 13.5980493,110.79912 C18.9296597,105.467509 27.5731015,105.467509 32.904712,110.79912 C38.2363224,116.13073 38.2363224,124.774172 32.904712,130.105782 C27.5731015,135.437393 18.9296597,135.437393 13.5980493,130.105782" id="Fill-1627" fill="#599ED0"></path>
                    <path d="M20.2449588,123.459041 C18.5839894,121.798072 18.5839894,119.106156 20.2449588,117.446871 C21.9059281,115.785902 24.5978439,115.785902 26.2571287,117.446871 C27.918098,119.106156 27.918098,121.798072 26.2571287,123.459041 C24.5978439,125.120011 21.9059281,125.120011 20.2449588,123.459041" id="Fill-1629" fill="#F3F1DE"></path>
                    <path d="M50.687528,258.947982 C46.2605225,254.520976 46.2605225,247.341411 50.687528,242.914405 C55.1145335,238.4874 62.2940986,238.4874 66.7211041,242.914405 C71.1481096,247.341411 71.1481096,254.520976 66.7211041,258.947982 C62.2940986,263.374987 55.1145335,263.374987 50.687528,258.947982" id="Fill-1631" fill="#40425B"></path>
                    <path d="M56.2076399,253.428038 C54.827991,252.048389 54.827991,249.812987 56.2076399,248.435023 C57.5872889,247.055374 59.8226908,247.055374 61.2006552,248.435023 C62.5803042,249.812987 62.5803042,252.048389 61.2006552,253.428038 C59.8226908,254.807687 57.5872889,254.807687 56.2076399,253.428038" id="Fill-1633" fill="#F3F1DE"></path>
                    <path d="M193.018786,208.984138 L193.018786,208.984138 C196.33904,212.304392 196.33904,217.688223 193.018786,221.008477 C189.698532,224.330416 184.3147,224.330416 180.994446,221.008477 L180.994446,221.008477 C177.672507,217.688223 177.672507,212.304392 180.994446,208.984138 L180.994446,208.984138 C184.3147,205.663883 189.698532,205.663883 193.018786,208.984138" id="Fill-1635" fill="#599ED0"></path>
                    <path d="M189.754796,212.248128 L189.754796,212.248128 C191.272578,213.76591 191.272578,216.227042 189.754796,217.744824 C188.237013,219.262607 185.775881,219.262607 184.258099,217.744824 C182.740317,216.227042 182.740317,213.76591 184.258099,212.248128 C185.775881,210.730345 188.237013,210.730345 189.754796,212.248128" id="Fill-1637" fill="#F3F1DE"></path>
                    <path d="M193.018786,114.440113 L193.018786,114.440113 C196.33904,117.760367 196.33904,123.144198 193.018786,126.464452 L193.018786,126.464452 C189.698532,129.786391 184.3147,129.786391 180.994446,126.464452 L180.994446,126.464452 C177.672507,123.144198 177.672507,117.760367 180.994446,114.440113 L180.994446,114.440113 C184.3147,111.119859 189.698532,111.119859 193.018786,114.440113" id="Fill-1639" fill="#599ED0"></path>
                    <path d="M189.754796,117.704103 L189.754796,117.704103 C191.272578,119.221885 191.272578,121.683017 189.754796,123.200799 C188.237013,124.718582 185.775881,124.718582 184.258099,123.200799 C182.740317,121.683017 182.740317,119.221885 184.258099,117.704103 C185.775881,116.18632 188.237013,116.18632 189.754796,117.704103" id="Fill-1641" fill="#F3F1DE"></path>
                    <path d="M136.564864,211.864723 L136.564864,211.864723 C139.885118,215.184977 139.885118,220.568809 136.564864,223.889063 L136.564864,223.889063 C133.24461,227.211002 127.860779,227.211002 124.540524,223.889063 L124.540524,223.889063 C121.218586,220.568809 121.218586,215.184977 124.540524,211.864723 L124.540524,211.864723 C127.860779,208.544469 133.24461,208.544469 136.564864,211.864723" id="Fill-1643" fill="#599ED0"></path>
                    <path d="M133.300874,215.128713 L133.300874,215.128713 C134.818656,216.646496 134.818656,219.107628 133.300874,220.62541 L133.300874,220.62541 C131.783092,222.143192 129.32196,222.143192 127.804178,220.62541 L127.804178,220.62541 C126.286395,219.107628 126.286395,216.646496 127.804178,215.128713 L127.804178,215.128713 C129.32196,213.610931 131.783092,213.610931 133.300874,215.128713" id="Fill-1645" fill="#F3F1DE"></path>
                    <path d="M98.9669874,82.0503686 C94.8162486,77.8996298 94.8162486,71.1698403 98.9669874,67.0191015 C103.117726,62.8683628 109.847516,62.8683628 113.998254,67.0191015 C118.148993,71.1698403 118.148993,77.8996298 113.998254,82.0503686 C109.847516,86.2011073 103.117726,86.2011073 98.9669874,82.0503686" id="Fill-1647" fill="#FF7D7D"></path>
                    <path d="M104.142103,76.8752531 C102.850051,75.5832009 102.850051,73.4859323 104.142103,72.1938801 C105.434155,70.9018279 107.531424,70.9018279 108.823476,72.1938801 C110.115528,73.4859323 110.115528,75.5832009 108.823476,76.8752531 C107.531424,78.1673053 105.434155,78.1673053 104.142103,76.8752531" id="Fill-1649" fill="#40425B"></path>
                    <path d="M62.3124603,82.2863744 L63.1648441,83.1387583 C65.144194,85.1181081 65.144194,88.3254972 63.1648441,90.3031625 L62.3124603,91.1555463 C60.334795,93.1348962 57.1274059,93.1348962 55.1480561,91.1555463 L54.2956722,90.3031625 C52.3180069,88.3254972 52.3180069,85.1181081 54.2956722,83.1387583 L55.1480561,82.2863744 C57.1274059,80.3087091 60.334795,80.3087091 62.3124603,82.2863744" id="Fill-1651" fill="#FF7D7D"></path>
                    <path d="M60.1633075,84.947126 L60.5052717,85.2890903 C61.2953271,86.0791457 61.2953271,87.3627751 60.5052717,88.1545151 L60.1633075,88.4947948 C59.3715675,89.2865347 58.0896226,89.2865347 57.2978827,88.4947948 L56.9559184,88.1545151 C56.165863,87.3627751 56.165863,86.0791457 56.9559184,85.2890903 L57.2978827,84.947126 C58.0896226,84.1553861 59.3715675,84.1553861 60.1633075,84.947126" id="Fill-1653" fill="#F3F1DE"></path>
                    <path d="M70.9141251,216.367028 L70.9141251,216.367028 C73.1276279,218.580531 73.1276279,222.170314 70.9141251,224.383816 C68.7006224,226.597319 65.1108398,226.597319 62.8973371,224.383816 C60.6838344,222.170314 60.6838344,218.580531 62.8973371,216.367028 L62.8973371,216.367028 C65.1108398,214.153526 68.7006224,214.153526 70.9141251,216.367028" id="Fill-1655" fill="#FF7D7D"></path>
                    <path d="M68.5090887,218.772065 L68.5090887,218.772065 C69.3951636,219.65814 69.3951636,221.093379 68.5090887,221.979454 C67.6230138,222.863844 66.1877746,222.863844 65.3016997,221.979454 C64.4173093,221.093379 64.4173093,219.65814 65.3016997,218.772065 C66.1877746,217.88599 67.6230138,217.88599 68.5090887,218.772065" id="Fill-1657" fill="#F3F1DE"></path>
                    <path d="M101.966503,101.531214 L101.966503,101.531214 C104.180005,103.744717 104.180005,107.334499 101.966503,109.548002 L101.966503,109.548002 C99.7529998,111.761505 96.1632172,111.761505 93.9497145,109.548002 L93.9497145,109.548002 C91.7362118,107.334499 91.7362118,103.744717 93.9497145,101.531214 C96.1632172,99.3177113 99.7529998,99.3177113 101.966503,101.531214" id="Fill-1659" fill="#599ED0"></path>
                    <path d="M99.5614662,103.93625 L99.5614662,103.93625 C100.447541,104.822325 100.447541,106.257565 99.5614662,107.14364 C98.6753912,108.02803 97.240152,108.02803 96.3540771,107.14364 C95.4696868,106.257565 95.4696868,104.822325 96.3540771,103.93625 C97.240152,103.050176 98.6753912,103.050176 99.5614662,103.93625" id="Fill-1661" fill="#40425B"></path>
                    <path d="M51.375331,129.556955 L51.375331,129.556955 C53.5888337,131.770458 53.5888337,135.36024 51.375331,137.573743 L51.375331,137.573743 C49.1618283,139.787246 45.5720457,139.787246 43.358543,137.573743 L43.358543,137.573743 C41.1450402,135.36024 41.1450402,131.770458 43.358543,129.556955 C45.5720457,127.343452 49.1618283,127.343452 51.375331,129.556955" id="Fill-1663" fill="#F3F1DE"></path>
                    <path d="M130.850692,111.074039 L130.850692,111.074039 C134.448897,114.672244 134.448897,120.504167 130.850692,124.100688 L130.850692,124.100688 C127.254171,127.698893 121.420564,127.698893 117.824043,124.100688 L117.824043,124.100688 C114.225838,120.504167 114.225838,114.672244 117.824043,111.074039 L117.824043,111.074039 C121.420564,107.477518 127.254171,107.477518 130.850692,111.074039" id="Fill-1665" fill="#FF7D7D"></path>
                    <path d="M127.24339,114.681341 L127.24339,114.681341 C128.848769,116.28672 128.848769,118.889354 127.24339,120.494733 L127.24339,120.494733 C125.638011,122.100112 123.035376,122.100112 121.429997,120.494733 L121.429997,120.494733 C119.824618,118.889354 119.824618,116.28672 121.429997,114.681341 L121.429997,114.681341 C123.035376,113.075962 125.638011,113.075962 127.24339,114.681341" id="Fill-1667" fill="#599ED0"></path>
                    <path d="M130.014648,166.052629 L130.014648,166.052629 C135.005979,171.043959 135.005979,179.134868 130.014648,184.124514 C125.023317,189.115845 116.932409,189.115845 111.942763,184.124514 L111.942763,184.124514 C106.951432,179.134868 106.951432,171.043959 111.942763,166.052629 L111.942763,166.052629 C116.932409,161.061298 125.023317,161.061298 130.014648,166.052629" id="Fill-1669" fill="#F3F1DE"></path>
                    <path d="M125.010346,171.056931 L125.010346,171.056931 C127.237325,173.28391 127.237325,176.893907 125.010346,179.120886 C122.783367,181.347865 119.17337,181.347865 116.946391,179.120886 C114.719412,176.893907 114.719412,173.28391 116.946391,171.056931 C119.17337,168.829951 122.783367,168.829951 125.010346,171.056931" id="Fill-1671" fill="#40425B"></path>
                    <path d="M111.642238,255.667314 L111.642238,255.667314 C115.240444,259.26552 115.240444,265.097442 111.642238,268.693963 L111.642238,268.693963 C108.045718,272.292169 102.21211,272.292169 98.6155896,268.693963 L98.6155896,268.693963 C95.0173843,265.097442 95.0173843,259.26552 98.6155896,255.667314 L98.6155896,255.667314 C102.21211,252.070794 108.045718,252.070794 111.642238,255.667314" id="Fill-1673" fill="#40425B"></path>
                    <path d="M108.035105,259.274616 L108.035105,259.274616 C109.640484,260.879995 109.640484,263.48263 108.035105,265.088009 L108.035105,265.088009 C106.429726,266.693388 103.827091,266.693388 102.221712,265.088009 C100.618018,263.48263 100.618018,260.879995 102.221712,259.274616 C103.827091,257.669237 106.429726,257.669237 108.035105,259.274616" id="Fill-1675" fill="#F3F1DE"></path>
                    <path d="M157.78838,242.894696 L157.78838,242.894696 C161.160855,246.267171 161.160855,251.733546 157.78838,255.106021 L157.78838,255.106021 C154.415905,258.478497 148.94953,258.478497 145.577055,255.106021 C142.204579,251.733546 142.204579,246.267171 145.577055,242.894696 C148.94953,239.522221 154.415905,239.522221 157.78838,242.894696" id="Fill-1677" fill="#40425B"></path>
                    <path d="M154.473853,246.209223 L154.473853,246.209223 C156.015219,247.750589 156.015219,250.250466 154.473853,251.791832 L154.473853,251.791832 C152.932487,253.333198 150.43261,253.333198 148.891244,251.791832 L148.891244,251.791832 C147.349878,250.250466 147.349878,247.750589 148.891244,246.209223 L148.891244,246.209223 C150.43261,244.667857 152.932487,244.667857 154.473853,246.209223" id="Fill-1679" fill="#599ED0"></path>
                    <path d="M101.924726,205.978558 L101.924726,205.978558 C105.297201,209.351033 105.297201,214.817408 101.924726,218.189883 L101.924726,218.189883 C98.5522504,221.562358 93.0858757,221.562358 89.7134005,218.189883 L89.7134005,218.189883 C86.3409252,214.817408 86.3409252,209.351033 89.7134005,205.978558 L89.7134005,205.978558 C93.0858757,202.606083 98.5522504,202.606083 101.924726,205.978558" id="Fill-1681" fill="#F3F1DE"></path>
                    <path d="M98.610199,209.293085 L98.610199,209.293085 C100.151565,210.834451 100.151565,213.334327 98.610199,214.875693 C97.068833,216.417059 94.5689562,216.417059 93.0275902,214.875693 C91.4862241,213.334327 91.4862241,210.834451 93.0275902,209.293085 C94.5689562,207.751718 97.068833,207.751718 98.610199,209.293085" id="Fill-1683" fill="#599ED0"></path>
                    <path d="M152.173091,136.633426 L152.173091,136.633426 C155.545566,140.005901 155.545566,145.472275 152.173091,148.844751 L152.173091,148.844751 C148.800615,152.217226 143.334241,152.217226 139.961765,148.844751 L139.961765,148.844751 C136.58929,145.472275 136.58929,140.005901 139.961765,136.633426 C143.334241,133.26095 148.800615,133.26095 152.173091,136.633426" id="Fill-1685" fill="#599ED0"></path>
                    <path d="M148.858564,139.947784 L148.858564,139.947784 C150.39993,141.48915 150.39993,143.989026 148.858564,145.530393 L148.858564,145.530393 C147.317198,147.071759 144.817321,147.071759 143.275955,145.530393 L143.275955,145.530393 C141.734589,143.989026 141.734589,141.48915 143.275955,139.947784 L143.275955,139.947784 C144.817321,138.406418 147.317198,138.406418 148.858564,139.947784" id="Fill-1687" fill="#40425B"></path>
                    <line x1="10.5847207" y1="167.724716" x2="86.0779665" y2="152.986561" id="Stroke-1689" stroke="#F3F1DE"></line>
                    <path d="M16.8077967,221.440397 C13.357832,217.990432 13.357832,212.397716 16.8077967,208.947751 C20.2577614,205.497786 25.8504776,205.497786 29.3004422,208.947751 C32.7504069,212.397716 32.7504069,217.990432 29.3004422,221.440397 C25.8504776,224.890361 20.2577614,224.890361 16.8077967,221.440397" id="Fill-1691" fill="#599ED0"></path>
                    <path d="M20.7846896,217.463335 C19.5313821,216.210028 19.5313821,214.178457 20.7846896,212.923465 C22.0379971,211.670157 24.0695681,211.670157 25.3245601,212.923465 C26.5778676,214.178457 26.5778676,216.210028 25.3245601,217.463335 C24.0695681,218.716643 22.0379971,218.716643 20.7846896,217.463335" id="Fill-1693" fill="#40425B"></path>
                    <path d="M18.1443211,160.165116 L18.1443211,160.165116 C22.2950599,164.315855 22.2950599,171.045644 18.1443211,175.196383 L18.1443211,175.196383 C13.9935823,179.347122 7.26379283,179.347122 3.11305407,175.196383 L3.11305407,175.196383 C-1.03768469,171.045644 -1.03768469,164.315855 3.11305407,160.165116 L3.11305407,160.165116 C7.26379283,156.014377 13.9935823,156.014377 18.1443211,160.165116" id="Fill-1695" fill="#FF7D7D"></path>
                    <path d="M13.2287952,164.992876 L13.2287952,164.992876 C14.6893028,166.453384 14.6893028,168.820181 13.2287952,170.280688 L13.2287952,170.280688 C11.7682877,171.741196 9.40149067,171.741196 7.94098316,170.280688 L7.94098316,170.280688 C6.48047565,168.820181 6.48047565,166.453384 7.94098316,164.992876 L7.94098316,164.992876 C9.40149067,163.532369 11.7682877,163.532369 13.2287952,164.992876" id="Fill-1697" fill="#40425B"></path>
                    <path d="M57.6096935,179.863269 L57.6096935,179.863269 C60.1887442,182.442319 60.1887442,186.621696 57.6096935,189.200746 L57.6096935,189.200746 C55.0306427,191.778112 50.8512666,191.778112 48.2722158,189.200746 L48.2722158,189.200746 C45.6948496,186.621696 45.6948496,182.442319 48.2722158,179.863269 L48.2722158,179.863269 C50.8512666,177.284218 55.0306427,177.284218 57.6096935,179.863269" id="Fill-1699" fill="#40425B"></path>
                    <path d="M55.1057738,182.373758 L55.1057738,182.373758 C56.3018065,183.569791 56.3018065,185.507027 55.1057738,186.703059 L55.1057738,186.703059 C53.9097411,187.899092 51.9725051,187.899092 50.7764724,186.703059 C49.5804397,185.507027 49.5804397,183.569791 50.7764724,182.373758 L50.7764724,182.373758 C51.9725051,181.177725 53.9097411,181.177725 55.1057738,182.373758" id="Fill-1701" fill="#599ED0"></path>
                    <path d="M95.268888,142.633298 L95.268888,142.633298 C100.98963,148.35404 100.98963,157.627505 95.268888,163.346563 L95.268888,163.346563 C89.5481458,169.067305 80.2746812,169.067305 74.5556235,163.346563 L74.5556235,163.346563 C68.8348813,157.627505 68.8348813,148.35404 74.5556235,142.633298 L74.5556235,142.633298 C80.2746812,136.912556 89.5481458,136.912556 95.268888,142.633298" id="Fill-1703" fill="#FF7D7D"></path>
                    <path d="M89.0549087,148.847446 L89.0549087,148.847446 C91.3425317,151.135069 91.3425317,154.844455 89.0549087,157.133763 L89.0549087,157.133763 C86.7672856,159.421386 83.0578997,159.421386 80.7702767,157.133763 L80.7685921,157.133763 C78.4809691,154.844455 78.4809691,151.135069 80.7685921,148.847446 L80.7702767,148.847446 C83.0578997,146.559823 86.7672856,146.559823 89.0549087,148.847446" id="Fill-1705" fill="#F3F1DE"></path>
                    <path d="M35.3078954,160.527632 L35.3078954,160.527632 C36.9351737,162.15491 36.9351737,164.791235 35.3078954,166.418514 C33.6806171,168.045792 31.0442916,168.045792 29.4170133,166.418514 L29.4170133,166.418514 C27.7897351,164.791235 27.7897351,162.15491 29.4170133,160.527632 L29.4170133,160.527632 C31.0442916,158.900353 33.6806171,158.900353 35.3078954,160.527632" id="Fill-1707" fill="#40425B"></path>
                    <path d="M33.6765742,162.158784 L33.6765742,162.158784 C34.4026166,162.884827 34.4026166,164.062329 33.6765742,164.786687 C32.9505318,165.512729 31.7730292,165.512729 31.0486714,164.786687 L31.0486714,164.786687 C30.322629,164.062329 30.322629,162.884827 31.0486714,162.158784 L31.0486714,162.158784 C31.7730292,161.432742 32.9505318,161.432742 33.6765742,162.158784" id="Fill-1709" fill="#599ED0"></path>
                    <path d="M49.4594888,133.565349 C49.4594888,134.720952 48.5228773,135.657564 47.3672739,135.657564 C46.2116705,135.657564 45.275059,134.720952 45.275059,133.565349 C45.275059,132.409746 46.2116705,131.473134 47.3672739,131.473134 C48.5228773,131.473134 49.4594888,132.409746 49.4594888,133.565349" id="Fill-1711" fill="#FF7D7D"></path>
                </g>
            </g>
        </g>
    </g>
</svg>